<svg xmlns="http://www.w3.org/2000/svg" viewBox="0 0 243 243" width="256" height="256">
  <path d="M 18.0,30.5 L 10.0,79.5 L 13.0,198.5 L 23.0,217.5 L 37.0,223.5 L 159.0,226.5 L 204.0,223.5 L 223.0,212.5 L 230.0,176.5 L 232.0,102.5 L 228.0,43.5 L 218.0,24.5 L 191.0,17.5 L 86.0,15.5 L 33.0,19.5 Z" fill="#1f5fa0"/>
  <path d="M 187.0,65.5 L 189.0,124.5 L 144.0,125.5 L 135.0,131.5 L 132.0,138.5 L 135.0,150.5 L 145.0,156.5 L 188.0,156.5 L 189.0,172.5 L 184.0,180.5 L 61.0,182.5 L 55.0,178.5 L 52.0,170.5 L 53.0,96.5 L 60.0,86.5 L 179.0,59.5 Z" fill="#ffffff" fill-rule="evenodd"/>
  <circle cx="148.8" cy="140.8" r="6.5" fill="#1f5fa0"/>
</svg>